Patient4_TMGait_0pt7_01_right_48_EMG.mot
version=1
nRows=33
nColumns=33
inDegrees=no
endheader
time	1LAddLong	2LGlutMax	3LGlutMed	4LIliopsoas	5LSemiMemb	6LBicFemLong	7LRecFem	8LVastMed	9LVastLat	10LGasMed	11LTibAnt	12lTibPost	13LPeroneusLong	14LSol	15LExtDigLong	16LFlexDigLong	17RAddLong	18RGlutMax	19RGlutMed	20RIliopsoas	21RSemiMemb	22RBicFemLong	23RRecFem	24RVastMed	25RVastLat	26RGasMed	27RTibAnt	28RTibPost	29RPeroneusLong	30RSol	31RExtDigLong	32RFlexDigLong
55.595	0.001221	-0.31418	0.052032	-0.010223	0.004578	-0.058136	-0.015564	0.020294	-0.043335	0.014801	-0.01236	-0.009003	-0.067902	0.19653	0.073242	-0.048676	-0.11002	-0.14282	-0.75607	0.17746	0.11047	0.79056	0.89798	0.31738	-0.12497	0.021973	-0.32852	-0.016785	-0.007629	-0.16724	0.001526	-0.006866
55.596	-0.019684	-0.26047	0.0177	-0.003052	0.011749	-0.062103	-0.052338	0.02182	-0.059052	0.038147	-0.041351	-0.020905	-0.088959	0.22644	0.14435	-0.030365	-0.075378	-0.24597	-0.72296	0.13046	0.27252	0.54718	0.93246	0.30502	-0.1033	0.030212	-0.11871	-0.013733	-1.2506	-0.17487	-0.00061	-0.015411
55.597	-0.016022	-0.18723	0.019684	0.009918	-0.001678	-0.064545	-0.093079	0.026093	-0.045013	0.057831	-0.12131	-0.018616	-0.08667	0.20828	-0.078888	-0.018616	-0.055237	-0.34439	-0.035706	0.083618	0.65674	0.4808	1.0374	0.21545	-0.091553	0.035858	-0.17914	-0.012512	-1.0747	-0.18646	0.000153	-0.012665
55.598	-0.012817	-0.12253	0.0177	0.017853	-0.010071	-0.046082	-0.11261	0.019989	-0.0177	0.063324	-0.019684	-0.025482	-0.15564	0.22476	0.20554	-0.016174	-0.048065	-0.44739	0.097504	0.07431	0.60593	0.48218	0.9993	0.20218	0.001678	0.009918	-0.084991	-0.009766	0.022736	-0.070038	0.000458	-0.014343
55.599	-0.012512	-0.066223	-0.00351	0.02533	0.011902	-0.077057	-0.056763	0.019073	0.002899	0.052948	0.11566	-0.012512	-0.1474	0.24002	-0.20248	-0.012512	-0.046844	-0.55328	-0.35065	0.045166	0.29419	0.076752	0.90195	0.29999	0.083313	-0.029755	0.065308	-0.007935	-0.76874	0.074768	-0.005798	-0.008392
55.6	-0.00885	-0.002594	-0.025482	0.004272	0.010986	-0.086365	-0.089722	0	0.027771	0.032043	-0.092468	-0.016022	-0.042725	0.20203	-0.075989	-0.033264	-0.018921	-0.42114	0.4158	-0.041656	0.16708	-0.47913	0.99976	0.32333	0.073853	-0.051727	0.14862	-0.009766	-1.1606	0.33005	0.003052	-0.011444
55.601	-0.009308	0.095062	-0.018616	-0.003815	0.012665	-0.084076	0.011902	-0.006561	0.041046	0.019531	-0.20767	-0.006256	0.035553	0.075073	0.012665	-0.006866	0.028839	-0.32181	0.087433	-0.034637	0.11749	-0.91553	1.0727	0.20706	-0.02182	-0.011597	0.069885	-0.004578	-0.16525	0.35996	-0.002899	-0.013885
55.602	-0.003357	0.22919	-0.011597	-0.005493	0.018463	-0.088654	0.097351	-0.013123	0.054779	0.023193	-0.033264	-0.004425	-0.044098	-0.11124	-0.43594	-0.019836	0.059509	-0.28153	-0.080109	0.04837	0.2652	-0.99426	1.0719	0.11551	-0.10986	-0.018616	0.001678	0.000916	-0.15015	0.18249	-0.003357	-0.007477
55.603	-0.014343	0.34424	-0.033417	0.003204	0.002747	-0.10574	0.11643	0.000305	0.040436	0.01297	-0.040131	-0.000458	-0.062408	-0.080872	-0.24704	-0.015411	0.090485	-0.26916	0.27161	0.007172	0.21835	-0.95047	0.91538	-0.024719	-0.16007	0.024109	0.13779	0.000153	-0.93201	0.224	-0.00061	-0.011444
55.604	-0.012512	0.42954	-0.046082	0.002747	0.025482	-0.099792	0.11765	0.010681	0.021973	0.052643	-0.002899	-0.014038	-0.11246	0.017548	-0.20142	-0.018768	0.090637	-0.35538	0.18158	-0.055389	0.094757	-0.82291	0.70847	-0.19455	-0.24918	-0.001526	0.26489	0	-1.443	0.2655	0.000763	-0.00412
55.605	-0.006561	0.53726	-0.066528	0.022888	0.014801	-0.08316	0.25787	0.008698	0.026093	0.13351	0.071259	-0.000458	-0.19867	-0.10254	-0.45761	-0.036011	0.018005	-0.29053	-0.11383	-0.076141	-0.49103	-0.73532	0.57571	0.028687	-0.17181	-0.03952	0.20355	-0.008545	-1.264	0.077209	0.000763	-0.012665
55.606	-0.010071	0.67062	-0.075684	0.007324	0.008698	-0.08667	0.29526	0.014954	0.031891	0.11231	0.10696	-0.004425	-0.10971	-0.045319	-0.27771	-0.027771	-0.041199	-0.26596	-0.26337	-0.19898	-0.67642	-0.63355	0.21759	0.37155	0.18997	-0.018768	0.050201	-0.014801	0.2002	-0.093994	0.010071	-0.007935
55.607	-0.00061	0.76874	-0.083008	-0.001831	0.040741	-0.10391	0.31204	0.010223	0.035706	0.065155	0.051575	-0.003967	-0.01358	0.10605	0.34973	-0.021973	-0.048218	-0.25238	-0.45792	-0.32577	0.001526	-0.43793	0.22553	0.41184	0.48401	0.004272	-0.057983	-0.00946	1.812	-0.20187	0.001984	-0.011444
55.608	-0.001831	0.8786	-0.10437	-0.02182	0.022125	-0.09491	0.31433	0.012054	0.034332	0.016937	-0.058289	-0.009918	0.030823	0.026245	0.27222	-0.025787	-0.017242	-0.29755	-0.41901	-0.20767	0.20218	-0.42801	0.5542	0.29053	0.3241	0.000153	0.052185	-0.002594	1.0994	-0.3537	-0.001221	-0.008545
55.609	-0.000458	0.97626	-0.11353	-0.043488	0.021057	-0.067749	0.2243	0.009308	0.02594	0.01236	-0.11612	-0.021667	0.038452	-0.020905	-0.29953	0.004883	-0.027466	-0.13519	0.56656	-0.037842	0.093079	-0.40558	0.59616	0.11993	0.32654	-0.000916	0.2298	-0.001678	-0.28748	-0.2887	-0.001221	-0.006409
55.61	-0.004425	1.035	-0.12665	-0.033569	0.018463	-0.053864	0.13596	0.016022	0.014648	0.04776	-0.084686	-0.025177	-0.012817	-0.010529	-0.054321	0.007782	-0.008698	-0.066071	0.41016	0.24735	-0.03418	-0.5339	0.44586	-0.009003	0.70068	0.000153	0.3537	-0.001831	-0.4039	-0.067596	0.006714	-0.002136
55.611	-0.003204	1.0934	-0.13031	-0.016785	0.023193	-0.032043	0.23666	0.021667	0.004272	0.044556	-0.03479	-0.03891	-0.008392	0.060425	-0.084229	0.014191	0.020905	0.00946	-0.19272	0.39597	-0.037994	-0.48553	0.4039	0.070801	0.70999	-0.004272	0.043335	-0.00351	0.26977	0.096283	0.001373	-0.012665
55.612	-0.011444	1.0838	-0.15945	-0.007629	0.019684	-0.025177	0.35996	0.019836	-0.014496	0.035095	0.11078	-0.026398	0.035553	0.084381	-0.044403	0.003052	0.032043	0.14465	-0.93567	0.32196	0.081635	-0.32852	0.49164	0.010529	0.4657	-0.023499	-0.31906	-0.014496	0.87769	0.27832	0.001678	-0.018616
55.613	-0.014191	1.0593	-0.16113	0.016632	0.016632	-0.033417	0.4602	0.016785	-0.035706	0.038757	0.16571	-0.015106	-0.044098	0.10895	0.075531	0.010529	0.025787	0.27741	-0.035248	0.13825	0.12405	-0.058899	0.2739	-0.12039	0.13702	-0.024261	-0.29236	-0.002747	0.32242	0.27969	-0.000458	-0.007782
55.614	-0.005951	1.0669	-0.19379	0.023041	0.025482	-0.054016	0.41122	0.019073	-0.035095	0.063629	0.23224	-0.010223	-0.12375	0.1059	0.033569	0.018311	0.029144	0.53635	-0.23911	0.11231	0.090637	-0.14542	-0.06897	-0.18829	-0.10788	-0.014496	0.066528	-0.004272	0.17075	0.037079	-0.002747	0
55.615	-0.01236	1.064	-0.1976	0.01709	0.022888	-0.034943	0.46417	0.029602	-0.045319	0.057983	0.022736	-0.024414	-0.15427	0.072021	-0.015259	0.008087	0.011902	0.5307	-0.57877	0.076141	0.000763	-0.31113	-0.39261	-0.076141	-0.27863	-0.007172	0.28854	-0.003662	-0.37201	0.024872	-0.001678	0.002441
55.616	-0.008392	1.0628	-0.18356	-0.026703	0.023041	-0.030365	0.41351	0.02533	-0.073547	0.046387	-0.103	-0.011597	-0.033569	0.041962	0.00351	0.016022	-0.031433	0.35934	0.020142	-0.03479	-0.3717	-0.27863	-0.42236	0.19623	-0.78339	-0.001831	0.22614	-0.009155	-0.31906	-0.036316	-0.003662	-0.000153
55.617	-0.011139	1.0678	-0.19867	-0.025787	0.028687	-0.038605	0.47104	0.022278	-0.072479	0.046387	-0.035706	-0.02121	0.023499	0.02121	0.061493	0.004883	-0.048676	0.33447	0.069733	-0.13596	-0.087585	-0.26215	-0.42816	-0.038452	-0.91476	-0.011139	0.2446	-0.005798	0.58243	-0.16327	-0.00061	-0.000916
55.618	-0.005646	1.0193	-0.20309	-0.030975	0.020294	-0.04364	0.43045	0.017242	-0.062256	0.061646	-0.14496	-0.017548	0.005798	0.045166	-0.00412	0.007782	-0.032654	0.1593	-0.27496	-0.074158	-0.20966	-0.084076	-0.22446	0.038452	-0.67963	-0.009003	-0.15839	-0.003662	0.84579	-0.28641	-0.002136	-0.001831
55.619	-0.001831	1.0341	-0.21225	-0.013275	0.021667	-0.044861	0.41916	0.020447	-0.058136	0.059662	-0.12451	-0.012512	-0.020905	0.13412	0.19486	0.013885	-0.019836	-0.008392	-0.73883	-0.012817	-0.16235	0.035706	-0.11322	0.23209	-0.25207	-0.000458	-0.49942	-0.002747	0.55374	-0.3804	-0.000153	0.013428
55.62	-0.001678	0.99213	-0.25665	-0.016174	0.026398	-0.031586	0.29984	0.011444	-0.030823	0.029907	-0.1445	-0.001984	-0.009003	0.14816	0.13702	0.026093	0.03952	-0.26413	-0.51193	-0.02594	-0.12817	-0.35812	-0.13321	0.17471	0.068359	0.003204	-0.24933	0.001678	-0.068207	-0.29572	0.000153	-0.004272
55.621	-0.000305	0.94376	-0.17136	0.000763	0.026703	-0.027771	0.25787	0.006714	0.010376	0.020752	-0.12878	0.010529	-0.002594	0.021057	0.17731	0.045929	0.057068	-0.327	-0.51025	-0.048065	-0.092163	-0.51544	-0.3096	0.18249	0.26977	-0.001984	-0.49972	-0.007629	-0.64636	-0.22583	0.000153	-0.00061
55.622	-0.000153	0.91492	-0.17563	0.059662	0.033569	-0.020905	0.2356	0.003052	-0.009308	0.041656	0.067749	0.020142	-0.000458	0.020752	-0.011444	0.066376	0.061951	-0.36713	-0.64194	-0.025024	-0.16342	-0.58304	-0.24384	0.094604	0.30548	-0.004425	-0.72464	-0.011444	0.85968	-0.13367	0.002594	-0.013123
55.623	0.00824	0.88943	-0.22201	0.077972	0.026855	-0.029907	0.27664	-0.008087	-0.012207	0.057983	0.14053	0.014801	-0.049286	-0.025787	-0.2536	0.059509	0.022583	-0.30441	-0.30106	-0.013428	-0.12085	-0.63217	-0.23148	0.035706	0.37598	-0.003357	-0.8493	-0.008087	0.94406	-0.083313	0.000153	-0.005646
55.624	0.010223	0.85785	-0.26932	0.001373	0.030823	-0.048981	0.26825	-0.005951	-0.018768	0.050659	0.18448	0.007782	-0.08316	-0.02594	-0.09491	0.049591	-0.030823	-0.26413	-0.61264	0.038605	-0.074921	-0.71335	-0.2858	0.10712	0.46081	-0.005493	-0.67261	-0.005798	0.12909	-0.054321	0.003204	0.008087
55.625	0.012054	0.89294	-0.24063	-0.074463	0.031433	-0.058136	0.17654	-0.009766	0.003967	0.060425	0.014954	0.023346	-0.03418	0.050812	0.26459	0.059357	-0.063019	-0.13214	-0.46265	0.018463	0.045624	-0.80627	-0.32486	0.12787	0.48523	0.004578	0.044556	-0.00412	0.24994	0.000458	-0.002441	0.011292
55.626	0.024414	0.93338	-0.23789	-0.071869	0.030365	-0.044708	0.050201	-0.013275	0.021362	0.035095	-0.27283	0.019684	0.097809	0.091248	0.19394	0.057983	-0.057831	-0.018311	0.41092	-0.042114	0.5896	-0.55054	-0.25146	0.12711	0.24246	0.008545	0.37293	-0.006256	-0.53787	-0.085907	-0.002289	0.02182
55.627	0.024261	0.94315	-0.22553	-0.035858	0.035553	-0.036926	-0.023651	-0.016937	-0.008698	0.050964	-0.15045	0.016174	0.026398	0.16037	0.10635	0.063171	0.000916	-0.22064	-0.14053	-0.032196	0.35431	-0.18509	-0.00061	0.019836	-0.27542	-0.003967	0.28397	-0.007935	-0.73059	0.005035	-0.002747	0.012054
